<?xml version="1.0" encoding="UTF-8"?>
<svg version="1.1" xmlns="http://www.w3.org/2000/svg" width="2048" height="2048">
<path d="M0 0 C1.09248047 0.96292969 1.09248047 0.96292969 2.20703125 1.9453125 C2.98691406 2.62851563 3.76679688 3.31171875 4.5703125 4.015625 C7.13876093 6.30142121 9.67371103 8.62066172 12.20703125 10.9453125 C13.27429068 11.90804996 14.34202129 12.87026526 15.41015625 13.83203125 C59.20373222 53.44534043 78.97703688 107.34115032 92.20703125 163.4453125 C92.73280561 165.66146383 93.25860347 167.87760958 93.78442383 170.09375 C95.05052415 175.44363945 96.30593367 180.79595338 97.55474854 186.14990234 C98.12990138 188.61476623 98.70785251 191.07895217 99.28662109 193.54296875 C101.41622877 202.6456137 103.37446004 211.77872258 105.20703125 220.9453125 C105.36820435 221.74761292 105.52937744 222.54991333 105.69543457 223.37652588 C112.32156254 256.51426684 116.87860263 289.84595576 121.24198914 323.33679199 C121.39628671 324.52100487 121.39628671 324.52100487 121.5537014 325.72914124 C121.7596016 327.30962625 121.96542396 328.8901214 122.17116737 330.47062683 C134.47168314 424.88809936 153.43212688 517.99209813 227.82958984 624.13867188 C229.15514283 625.87725608 230.47277809 627.62158098 231.7890625 629.3671875 C240.82654642 641.30225283 250.55354216 652.46029452 260.82421875 663.34375 C263.70661311 666.39956976 266.52424081 669.50815543 269.33203125 672.6328125 C274.53545477 678.32478398 279.94993573 683.79686237 285.39453125 689.2578125 C286.66031006 690.53047974 286.66031006 690.53047974 287.95166016 691.82885742 C292.31409215 696.18057827 296.74411062 700.38100793 301.41772461 704.39672852 C303.03179225 705.79364911 304.60177825 707.22105168 306.15625 708.68359375 C312.65302949 714.79112254 319.39840077 720.3107182 326.52294922 725.6640625 C328.83857453 727.42579078 331.11274905 729.2375556 333.38891602 731.04980469 C360.75550655 752.80302837 390.83746041 770.93893179 422.02490234 786.64697266 C427.44248777 789.39575252 432.40861297 792.20971557 437.20703125 795.9453125 C437.76350342 796.36441895 438.31997559 796.78352539 438.89331055 797.21533203 C440.20703125 798.9453125 440.20703125 798.9453125 440.68164062 801.80908203 C440.05967346 805.91905641 438.58571104 807.25872842 435.61328125 810.125 C435.14716431 810.58262726 434.68104736 811.04025452 434.20080566 811.51174927 C432.71641898 812.96268787 431.21252577 814.39131962 429.70703125 815.8203125 C428.69394889 816.80328407 427.68221336 817.78764575 426.671875 818.7734375 C424.19898769 821.18035838 421.70816375 823.56771618 419.20703125 825.9453125 C423.39093624 823.62092084 427.40583755 821.1604227 431.3984375 818.51953125 C437.07740328 814.89159817 442.89144657 812.23882436 449.14453125 809.7578125 C450.28913818 809.30003418 451.43374512 808.84225586 452.61303711 808.37060547 C476.61880746 798.94539821 500.64420279 790.82646638 526.20703125 786.9453125 C527.26212891 786.7685498 528.31722656 786.59178711 529.40429688 786.40966797 C536.56183006 785.23263728 543.58468346 784.55155272 550.83203125 784.3203125 C551.86690674 784.28381592 552.90178223 784.24731934 553.96801758 784.2097168 C557.04748387 784.10852926 560.12689548 784.02321972 563.20703125 783.9453125 C564.06699707 783.92194824 564.92696289 783.89858398 565.81298828 783.87451172 C615.3792178 782.68890743 675.69845349 796.13946189 716.20703125 825.9453125 C713.81965747 822.72235789 711.21319564 819.92541021 708.31640625 817.16796875 C707.60742188 816.48927734 706.8984375 815.81058594 706.16796875 815.11132812 C704.68772704 813.70300628 703.19799916 812.3045916 701.69921875 810.91601562 C696.48076262 805.87437531 696.48076262 805.87437531 695.28515625 801.81640625 C697.81617552 793.93378267 707.45161849 790.38600566 714.26953125 786.8203125 C716.42067813 785.67337439 718.57171746 784.52623455 720.72265625 783.37890625 C722.88404539 782.23424433 725.04550195 781.08970972 727.20703125 779.9453125 C753.60372504 765.90627882 779.30796651 750.24109057 802.52539062 731.31201172 C804.34226468 729.83540589 806.17161266 728.37539097 808.00390625 726.91796875 C811.17018548 724.39923829 814.32689932 721.86895881 817.47900391 719.33251953 C819.07545242 718.05093993 820.67808197 716.77707019 822.28125 715.50390625 C827.45040389 711.35848995 832.26340089 707.0727174 836.84375 702.28125 C838.77354327 700.37378492 840.72763843 698.618569 842.78515625 696.85546875 C847.68073827 692.60804062 852.25502572 688.04788126 856.82543945 683.45727539 C858.26728346 682.01006865 859.71440241 680.56829224 861.16210938 679.12695312 C865.80719653 674.48519813 870.32617325 669.78515551 874.59985352 664.79760742 C877.34881539 661.62939023 880.25938071 658.61396127 883.14453125 655.5703125 C888.46727995 649.9045671 893.48879237 644.12950626 898.20703125 637.9453125 C898.93664063 637.01074219 899.66625 636.07617188 900.41796875 635.11328125 C911.83613863 620.42485883 922.92052925 605.45075213 933.20703125 589.9453125 C933.74295898 589.13787598 934.27888672 588.33043945 934.83105469 587.49853516 C985.88461425 510.07361326 1002.77893633 418.54007472 1014.55078125 328.10546875 C1014.75777526 326.51632028 1014.96478115 324.92717336 1015.17179871 323.33802795 C1015.32713436 322.14557229 1015.32713436 322.14557229 1015.4856081 320.9290266 C1019.85196721 287.41980958 1024.5127899 254.0876421 1031.20703125 220.9453125 C1031.37980591 220.08631348 1031.55258057 219.22731445 1031.73059082 218.34228516 C1036.05349658 196.9392528 1041.14094593 175.71422537 1046.36050415 154.51422119 C1046.95492747 152.09873163 1047.54649769 149.6825377 1048.13485718 147.26556396 C1053.30233546 126.10896313 1059.35148587 105.52419195 1069.14453125 86.0078125 C1069.75953952 84.76469582 1070.37411521 83.52136504 1070.98828125 82.27783203 C1072.70367696 78.8212222 1074.45089316 75.38142012 1076.20703125 71.9453125 C1076.63129395 71.10822754 1077.05555664 70.27114258 1077.49267578 69.40869141 C1085.49516992 53.79635698 1096.19833333 39.68773942 1108.20703125 26.9453125 C1109.25200989 25.69807993 1110.29371261 24.44809494 1111.33203125 23.1953125 C1136.82240065 -6.03839787 1171.94485119 -26.58713487 1210.20703125 -33.0546875 C1211.22192627 -33.23056396 1212.23682129 -33.40644043 1213.2824707 -33.58764648 C1222.34787822 -35.03289363 1231.24232041 -35.41659821 1240.39453125 -35.3671875 C1241.11691986 -35.36503235 1241.83930847 -35.3628772 1242.58358765 -35.36065674 C1261.52657213 -35.27023427 1278.27481237 -32.09434547 1296.20703125 -26.0546875 C1296.9252002 -25.81347168 1297.64336914 -25.57225586 1298.38330078 -25.32373047 C1308.07304466 -22.01031629 1317.18785985 -17.83262062 1326.25 -13.078125 C1328.16589791 -12.07619835 1330.09133788 -11.09519898 1332.01953125 -10.1171875 C1361.50540804 5.0083862 1388.95652574 27.53530882 1410.20703125 52.9453125 C1410.64853516 53.4623877 1411.09003906 53.97946289 1411.54492188 54.51220703 C1469.34165528 122.36466306 1492.91559855 210.18140647 1505.20703125 458.9453125 C1498.31643394 544.30873904 1474.62602115 628.57992303 1401.20703125 774.9453125 C1400.61857422 775.92081055 1400.03011719 776.89630859 1399.42382812 777.90136719 C1392.60977908 789.18640248 1385.48934557 800.14960708 1377.74707031 810.81982422 C1376.12805581 813.05431063 1374.52213162 815.29780011 1372.91796875 817.54296875 C1363.76675775 830.32627169 1354.37681341 842.73692691 1344.0703125 854.61328125 C1341.58723713 857.48252188 1339.19993834 860.41743721 1336.83203125 863.3828125 C1327.26638175 875.08350152 1316.52931779 885.73222376 1305.88589478 896.44168091 C1304.6574637 897.67818677 1303.43051369 898.91616608 1302.20516968 900.1557312 C1295.58056598 906.84898834 1288.93420418 913.25273918 1281.53051758 919.08935547 C1279.29246742 920.8770677 1277.182167 922.74870653 1275.08203125 924.6953125 C1253.52752854 944.02136395 1228.05590389 959.99971459 1202.61621094 973.64599609 C1200.09694453 975.00468436 1197.59402834 976.39108196 1195.08984375 977.77734375 C1139.03071282 1008.36377962 1074.37377596 1024.05035732 1010.76953125 1024.3203125 C1009.71020386 1024.328349 1008.65087646 1024.3363855 1007.55944824 1024.34466553 C988.77378196 1024.452763 970.09857436 1023.83255502 952.51953125 1016.5703125 C951.07030273 1016.00957031 951.07030273 1016.00957031 949.59179688 1015.4375 C941.88946472 1012.40434964 934.58575195 1008.71398626 927.2578125 1004.8828125 C918.45099966 1000.294389 909.72970375 996.79116865 900.20703125 993.9453125 C901.32078125 994.43 902.43453125 994.9146875 903.58203125 995.4140625 C907.64555386 997.1920218 911.69384444 999.00217283 915.73535156 1000.82958984 C917.29997053 1001.53586292 918.8667762 1002.23732839 920.43652344 1002.93212891 C940.99110324 1012.09449723 953.70588772 1028.7312152 966.98925781 1046.34960938 C968.20654546 1047.94467594 969.44805482 1049.51734322 970.69921875 1051.0859375 C976.24650915 1058.07569628 981.06945928 1065.32288697 985.72265625 1072.93359375 C988.03141104 1076.69837681 990.47435736 1080.35634733 992.95703125 1084.0078125 C999.16467381 1093.1998986 1004.85723409 1102.70901634 1010.56445312 1112.21679688 C1012.02246829 1114.6387317 1013.49460166 1117.05120786 1014.97265625 1119.4609375 C1026.31555384 1138.10163913 1034.37406988 1157.96812243 1042.06187439 1178.31692505 C1043.94185241 1183.28201426 1045.90545952 1188.20954878 1047.89233398 1193.13256836 C1066.69370005 1240.04843114 1073.77946636 1291.53666303 1078.95837402 1341.56427002 C1079.22160773 1344.08489102 1079.49143346 1346.60474247 1079.76269531 1349.12451172 C1080.24489718 1353.60633147 1080.71768949 1358.08905225 1081.18353271 1362.57260132 C1081.36257047 1364.2894819 1081.543683 1366.0061477 1081.72711182 1367.7225647 C1083.15707622 1381.17880663 1084.37875512 1394.69420701 1082.08203125 1408.1328125 C1081.95151367 1408.92123535 1081.82099609 1409.7096582 1081.68652344 1410.52197266 C1080.1751403 1419.01219254 1077.71446153 1427.17614611 1075.04394531 1435.36425781 C1074.18706966 1438.00687431 1073.36366181 1440.65844582 1072.54296875 1443.3125 C1069.04231859 1454.45221666 1064.8989518 1464.75390088 1059.20703125 1474.9453125 C1058.68657227 1475.88375 1058.16611328 1476.8221875 1057.62988281 1477.7890625 C1051.24820499 1489.21764098 1045.00253502 1500.20029412 1036.20703125 1509.9453125 C1034.7630249 1511.73173948 1033.3257488 1513.52362332 1031.89453125 1515.3203125 C1028.05798349 1520.0160871 1024.01001784 1524.46083462 1019.87109375 1528.88696289 C1014.55981607 1534.58832965 1009.52139597 1540.51157287 1004.47900391 1546.45019531 C999.32372041 1552.50987979 993.98884984 1558.3983584 988.625 1564.2734375 C986.55888691 1566.55650915 984.53033085 1568.86368869 982.51953125 1571.1953125 C976.85189461 1577.67824722 970.78359073 1583.18622286 964.06640625 1588.578125 C961.33845913 1590.83650745 958.77743045 1593.19811761 956.20703125 1595.6328125 C943.17773274 1607.58714755 928.06384174 1617.42491053 913.20703125 1626.9453125 C912.55782715 1627.36151855 911.90862305 1627.77772461 911.23974609 1628.20654297 C896.85239843 1637.33989656 881.40007405 1643.953881 865.7421875 1650.58203125 C861.94163973 1652.19456971 858.16123079 1653.84600178 854.390625 1655.52734375 C840.30475251 1661.7947604 826.31268986 1667.01782764 811.4440918 1671.08398438 C787.43190442 1677.69473354 770.53416658 1687.92468117 752.06396484 1704.31054688 C749.08200932 1706.93573412 746.04780211 1709.49887841 743.01953125 1712.0703125 C738.65362498 1715.78777473 734.39603432 1719.59264147 730.20703125 1723.5078125 C725.51352548 1727.88742637 720.58434796 1731.84626896 715.48828125 1735.74584961 C711.32368176 1738.96826567 707.50272917 1742.42496216 703.70703125 1746.0703125 C697.43350587 1752.03341909 690.67517593 1756.60378342 683.20703125 1760.9453125 C682.35625 1761.44804688 681.50546875 1761.95078125 680.62890625 1762.46875 C659.95510541 1773.76403854 634.09490593 1774.11942621 611.9453125 1767.72607422 C609.16441678 1766.9331619 606.37534329 1766.17342748 603.584198 1765.41751099 C600.78608429 1764.6558103 597.99254971 1763.87816817 595.19976807 1763.09716797 C593.79912676 1762.70737656 592.39723573 1762.32204553 590.99407959 1761.94140625 C574.93517326 1757.56400906 574.93517326 1757.56400906 570.87109375 1750.68359375 C569.9393191 1746.8413936 569.74060673 1743.07407387 569.58203125 1739.1328125 C569.52402344 1737.95041992 569.52402344 1737.95041992 569.46484375 1736.74414062 C569.37114281 1734.8115587 569.28802346 1732.87846874 569.20703125 1730.9453125 C568.54703125 1730.9453125 567.88703125 1730.9453125 567.20703125 1730.9453125 C567.15095703 1732.68167969 567.15095703 1732.68167969 567.09375 1734.453125 C567.028057 1735.99221811 566.96161083 1737.5312792 566.89453125 1739.0703125 C566.87197266 1739.83085938 566.84941406 1740.59140625 566.82617188 1741.375 C566.54663938 1747.27059439 565.56578725 1751.6697079 561.15014648 1755.9296875 C557.38525948 1758.50811198 553.70345679 1759.63577205 549.34765625 1760.890625 C548.4850116 1761.1465744 547.62236694 1761.4025238 546.73358154 1761.66622925 C544.90628568 1762.20468955 543.07723006 1762.73720907 541.24658203 1763.26416016 C538.50226084 1764.0572416 535.76687139 1764.87670232 533.03125 1765.69921875 C508.07388683 1773.06143719 480.16200353 1775.42418178 456.20703125 1762.9453125 C448.30918076 1758.39556355 441.27526641 1753.45152573 434.62109375 1747.1875 C432.12420874 1744.86838674 429.54256852 1742.71468851 426.89453125 1740.5703125 C417.89521868 1733.26946174 409.0806986 1725.82292109 400.59057617 1717.93457031 C396.48315197 1714.14143093 392.19667892 1710.6175508 387.83984375 1707.1171875 C385.2911788 1705.01472799 382.8750904 1702.82078339 380.45703125 1700.5703125 C362.7334909 1684.50659577 342.98172796 1675.77105552 320.08203125 1669.6328125 C307.9853166 1666.35573058 296.66149266 1661.9970819 285.20703125 1656.9453125 C284.12067383 1656.46868164 283.03431641 1655.99205078 281.91503906 1655.50097656 C276.12821738 1652.95726468 270.35208513 1650.39100888 264.5859375 1647.80078125 C260.72964664 1646.06851 256.86698588 1644.35602137 252.984375 1642.68359375 C225.09849976 1630.64617166 199.63545366 1612.55825105 176.94580078 1592.47363281 C175.08748924 1590.84023907 173.21029353 1589.23083133 171.328125 1587.625 C162.31446965 1579.92258397 153.74462075 1572.04702976 146.01171875 1563.03125 C143.99051849 1560.69505749 141.91324286 1558.41566399 139.83203125 1556.1328125 C136.6838449 1552.64846388 133.66178089 1549.09499455 130.70703125 1545.4453125 C125.5398659 1539.07128327 120.05983841 1533.01380471 114.4765625 1527.00390625 C108.77521467 1520.85663193 103.27947679 1514.62947075 98.20703125 1507.9453125 C97.10681641 1506.51445312 97.10681641 1506.51445312 95.984375 1505.0546875 C65.53958882 1464.52243241 49.56534381 1415.64749462 54.95703125 1365.1953125 C55.14112301 1363.42996657 55.32487318 1361.66458499 55.50830078 1359.89916992 C55.97543984 1355.42866584 56.45383115 1350.95943701 56.93493652 1346.49041748 C57.19191926 1344.08666624 57.4434565 1341.68242942 57.69238281 1339.27783203 C63.55870099 1282.71211129 74.00588463 1227.90133118 95.69947815 1175.1600647 C97.6640534 1170.35620282 99.50126906 1165.51516235 101.29296875 1160.64453125 C103.78770954 1153.89959542 106.57945886 1147.35870176 109.70703125 1140.8828125 C110.21693604 1139.82481445 110.72684082 1138.76681641 111.25219727 1137.67675781 C116.36146284 1127.29293825 122.28355419 1117.48938787 128.46337891 1107.71533203 C130.18484381 1104.98056014 131.87816021 1102.23042258 133.5625 1099.47265625 C140.50940044 1088.11081641 147.72123365 1076.95889978 155.20703125 1065.9453125 C155.6246875 1065.3265625 156.04234375 1064.7078125 156.47265625 1064.0703125 C161.4094513 1056.76129126 166.61642343 1049.76831883 172.20703125 1042.9453125 C173.45788489 1041.36265347 174.70786652 1039.7793049 175.95703125 1038.1953125 C188.48903987 1022.59173313 199.72601255 1010.27214454 218.20703125 1001.9453125 C219.02558594 1001.57422363 219.84414063 1001.20313477 220.6875 1000.82080078 C225.84407772 998.49027245 231.01833523 996.20335614 236.20703125 993.9453125 C224.15054501 997.54840034 213.35473584 1002.54796453 202.3046875 1008.51171875 C195.97143744 1011.84644296 189.44580237 1014.57230747 182.76953125 1017.1328125 C181.94308105 1017.46603516 181.11663086 1017.79925781 180.26513672 1018.14257812 C162.90682593 1024.58189924 143.90119743 1024.45881518 125.64453125 1024.3203125 C124.00019104 1024.31333344 124.00019104 1024.31333344 122.32263184 1024.30621338 C30.89484089 1023.85211836 -59.93524193 988.27427321 -130.79296875 930.9453125 C-131.77136719 930.1615625 -132.74976563 929.3778125 -133.7578125 928.5703125 C-139.05358971 924.29209697 -144.18623103 919.8747645 -149.2109375 915.28125 C-151.28561885 913.40430681 -153.38415317 911.56965605 -155.50146484 909.74169922 C-159.49117717 906.25265656 -163.28880074 902.61059151 -167.0390625 898.8671875 C-167.69447525 898.21510315 -168.349888 897.5630188 -169.02516174 896.89117432 C-170.40031921 895.52104011 -171.7741613 894.14958452 -173.14672852 892.77685547 C-175.2167609 890.70900589 -177.29466548 888.64929725 -179.37304688 886.58984375 C-185.91681122 880.07323358 -192.23230913 873.56547048 -197.93188477 866.28613281 C-199.95509957 863.7413888 -202.09913904 861.3437803 -204.29296875 858.9453125 C-220.03807979 841.57699414 -233.53452223 822.23685953 -246.79296875 802.9453125 C-247.22351563 802.32479004 -247.6540625 801.70426758 -248.09765625 801.06494141 C-294.86793092 733.5651945 -328.61173321 655.77763364 -369.79296875 444.9453125 C-369.86644531 443.91970215 -369.93992187 442.8940918 -370.015625 441.83740234 C-375.74431783 355.8613023 -369.15363616 262.92216438 -320.79296875 124.9453125 C-320.37869629 124.08631348 -319.96442383 123.22731445 -319.53759766 122.34228516 C-306.76454609 96.23719777 -290.25189335 71.53026942 -270.79296875 49.9453125 C-270.28878418 49.38473145 -269.78459961 48.82415039 -269.26513672 48.24658203 C-259.4244579 37.35031787 -249.36864153 27.02824282 -237.79296875 17.9453125 C-236.78363281 17.14222656 -235.77429688 16.33914062 -234.734375 15.51171875 C-168.26845669 -36.91543097 -77.44732387 -56.30014679 0 0 Z M-189.24609375 559.18359375 C-191.79866237 565.15546138 -192.92943367 571.53697324 -193.79296875 577.9453125 C-193.90511719 578.76128906 -194.01726562 579.57726562 -194.1328125 580.41796875 C-194.45363502 583.26142313 -194.64110616 586.08753458 -194.79296875 588.9453125 C-194.83228516 589.59435547 -194.87160156 590.24339844 -194.91210938 590.91210938 C-197.25691502 634.50959747 -174.278983 677.67303735 -146.34765625 709.75390625 C-144.92809429 711.3346727 -143.50014758 712.90801258 -142.05859375 714.46875 C-140.17177211 716.53124124 -138.33856057 718.62319408 -136.51171875 720.73828125 C-127.19166953 731.41324944 -116.97820423 741.25084177 -105.79296875 749.9453125 C-104.63084199 750.88297969 -103.47081659 751.82325509 -102.3125 752.765625 C-69.76146924 779.20478943 -33.37748784 799.55709513 4.20703125 817.9453125 C4.97337891 818.32220215 5.73972656 818.6990918 6.52929688 819.08740234 C14.51591392 823.00149138 22.35380124 826.78527743 30.83203125 829.5078125 C37.16423395 831.69030675 42.25375857 834.39328984 46.20703125 839.9453125 C48.05018654 844.94248783 47.77469134 849.41678463 45.76953125 854.3203125 C43.69677708 857.74486286 41.55276853 859.78460058 37.84375 861.3203125 C25.81782937 864.17090109 13.80137035 861.24107036 2.20703125 857.9453125 C1.1205127 857.64447754 0.03399414 857.34364258 -1.08544922 857.03369141 C-24.70343809 850.44953409 -46.65259426 841.53125623 -68.67694092 830.77523804 C-86.85138325 820.77153702 -86.85138325 820.77153702 -106.79296875 818.9453125 C-110.02577127 821.10051418 -110.54148748 822.14811567 -111.4375 825.81640625 C-112.3501656 831.28237056 -112.70606222 836.08260183 -110.23046875 841.1328125 C-109.42609375 842.0609375 -108.62171875 842.9890625 -107.79296875 843.9453125 C-107.11621094 844.73808594 -107.11621094 844.73808594 -106.42578125 845.546875 C-79.71744337 874.64700433 -30.44883214 889.8544968 6.13574219 901.62207031 C8.92479935 902.52152144 11.70182188 903.45011245 14.47363281 904.40136719 C26.01450569 908.35272892 37.65625638 911.73385389 49.45703125 914.8203125 C50.48516937 915.08966614 51.5133075 915.35901978 52.57260132 915.63653564 C100.52216123 928.0869956 149.67198999 938.00954768 198.76635742 944.61315918 C201.27084007 944.9539963 203.77321602 945.30767112 206.27539062 945.66503906 C210.51314348 946.26994675 214.75288156 946.85808044 218.99490356 947.43228149 C220.51735832 947.63881613 222.03944432 947.84810269 223.56100464 948.06112671 C250.98993504 951.85831288 278.78930832 952.28818982 306.43505859 952.20605469 C310.34516321 952.19451985 314.2550001 952.201564 318.16509628 952.21289825 C338.1478064 952.2967759 338.1478064 952.2967759 358.08984375 951.1796875 C358.86738007 951.11896057 359.64491638 951.05823364 360.4460144 950.9956665 C365.14493226 950.48664677 367.87151158 949.29848665 371.20703125 945.9453125 C372.60605276 943.34907314 372.60605276 943.34907314 373.45703125 940.5078125 C373.7715625 939.58097656 374.08609375 938.65414063 374.41015625 937.69921875 C375.94120843 932.40808253 376.4164342 927.44621255 376.45703125 921.9453125 C376.47765625 921.24664063 376.49828125 920.54796875 376.51953125 919.828125 C376.56112804 914.31655024 375.24190242 911.40529603 371.8046875 907.25 C363.64333447 899.64935061 351.11242575 899.30170944 340.51931763 897.65029335 C338.2559599 897.29670982 335.99397715 896.9352353 333.73217773 896.57182312 C327.30738753 895.54059897 320.88095018 894.52001555 314.45263672 893.51098633 C283.69818087 888.67475433 252.99390598 883.42059395 223.58203125 872.9453125 C220.89980092 872.01526345 218.21528046 871.09205432 215.53048706 870.16943359 C213.78798301 869.5703557 212.04619812 868.96918116 210.3052063 868.36572266 C203.53584009 866.02675899 196.70738885 863.95030196 189.83203125 861.9453125 C150.5570383 850.25013518 111.42790465 832.95127248 75.20703125 813.9453125 C74.46098633 813.5544043 73.71494141 813.16349609 72.94628906 812.76074219 C59.24159176 805.52443781 46.17245464 797.42532653 33.20703125 788.9453125 C32.60455566 788.5524707 32.00208008 788.15962891 31.38134766 787.75488281 C27.96479968 785.52135599 24.581575 783.24170013 21.20703125 780.9453125 C20.5104541 780.47270996 19.81387695 780.00010742 19.09619141 779.51318359 C13.45032152 775.68049974 7.82415126 771.81997896 2.20703125 767.9453125 C1.54848145 767.49365723 0.88993164 767.04200195 0.21142578 766.57666016 C-11.8552287 758.27983683 -22.728908 748.79967162 -33.55859375 738.9609375 C-35.65378938 737.07086592 -37.77915441 735.22318763 -39.91796875 733.3828125 C-44.84400361 729.09496839 -49.42483607 724.4581644 -53.90234375 719.70703125 C-55.60613723 717.71807063 -55.60613723 717.71807063 -57.79296875 717.9453125 C-58.06608887 717.34928223 -58.33920898 716.75325195 -58.62060547 716.13916016 C-59.75682204 714.01295397 -60.88769425 712.57116447 -62.55078125 710.84375 C-63.08968994 710.27664307 -63.62859863 709.70953613 -64.18383789 709.12524414 C-64.75610107 708.5296167 -65.32836426 707.93398926 -65.91796875 707.3203125 C-70.40801653 702.56401513 -74.71223936 697.76850672 -78.7265625 692.59765625 C-80.27792198 690.60640278 -81.84942981 688.64749092 -83.453125 686.69921875 C-107.66576 657.17240844 -126.67696277 623.77631937 -144.04296875 589.8828125 C-154.40033114 566.90372516 -154.40033114 566.90372516 -171.78125 550.1328125 C-178.35963192 549.50002226 -185.74397035 553.78919399 -189.24609375 559.18359375 Z M1282.01953125 587.2578125 C1281.36779041 588.48241742 1280.7154339 589.70669485 1280.0625 590.93066406 C1277.53176997 595.67668495 1275.00879858 600.42674091 1272.49755859 605.18310547 C1264.38206013 620.54222971 1255.62540878 635.34820027 1246.20703125 649.9453125 C1245.5094873 651.03295898 1245.5094873 651.03295898 1244.79785156 652.14257812 C1234.78535846 667.70388562 1223.77457617 682.49516785 1211.5546875 696.38720703 C1209.43788903 698.83456352 1207.42072413 701.36033927 1205.39453125 703.8828125 C1202.28694629 707.72759827 1199.04606502 711.2442585 1195.421875 714.60546875 C1193.98312968 715.89081917 1193.98312968 715.89081917 1194.20703125 717.9453125 C1193.21703125 718.2753125 1192.22703125 718.6053125 1191.20703125 718.9453125 C1189.49233194 720.56252054 1187.83268312 722.2386164 1186.20703125 723.9453125 C1179.70501777 730.61499968 1173.21850711 736.94245148 1165.90625 742.7421875 C1163.14260744 744.99789576 1160.55661033 747.37816731 1157.95703125 749.8203125 C1145.8557221 760.91317922 1131.77803038 769.78017594 1118.20703125 778.9453125 C1117.54703125 779.39261719 1116.88703125 779.83992187 1116.20703125 780.30078125 C1094.72482846 794.84602272 1072.70855533 808.68984454 1049.29736328 819.93701172 C1047.0715104 821.01068287 1044.85624062 822.10459087 1042.640625 823.19921875 C1010.05418955 839.15753298 975.80176527 852.4885342 941.28857422 863.61865234 C937.3706888 864.88677555 933.46338419 866.18593075 929.55619812 867.48658752 C886.55909622 881.79685893 843.84836123 890.3056641 799.11181641 897.19287109 C778.68747105 899.2328822 778.68747105 899.2328822 762.20703125 909.9453125 C759.7653857 913.53973496 759.86075325 917.23796447 759.89453125 921.4453125 C759.8987207 922.15220215 759.90291016 922.8590918 759.90722656 923.58740234 C760.09353111 932.36551789 761.41436539 941.06652179 767.20703125 947.9453125 C779.88459521 956.39702181 805.59075339 952.24978551 820.60986328 952.20605469 C824.50393125 952.19479957 828.39772158 952.20135672 832.29177952 952.21292591 C859.92102308 952.2825927 887.6203805 951.59379395 915.01953125 947.7578125 C916.65483331 947.53596912 918.29017004 947.31438123 919.92553711 947.09301758 C924.18207383 946.51141377 928.43531414 945.90831763 932.68823242 945.30090332 C935.14579848 944.95395702 937.60467459 944.61894715 940.06445312 944.28808594 C1019.17432322 933.59468454 1104.08406186 917.79924665 1176.80322266 884.05078125 C1179.51112723 882.80546417 1182.23842551 881.60939273 1184.96875 880.4140625 C1221.80038234 865.5448992 1221.80038234 865.5448992 1248.20703125 837.9453125 C1249.07115961 831.34651412 1248.02961326 825.91615906 1245.20703125 819.9453125 C1240.30488603 817.49423989 1234.74932161 818.47030849 1229.69140625 820.02807617 C1228.40099917 820.50424377 1227.11467502 820.99158116 1225.83203125 821.48828125 C1225.1355246 821.75413025 1224.43901794 822.01997925 1223.72140503 822.29388428 C1216.74336621 825.02083472 1210.07059753 828.29458229 1203.38568115 831.66452026 C1129.84092843 868.57897196 1129.84092843 868.57897196 1098.54296875 861.328125 C1094.11366541 859.45355093 1091.60133922 856.66014289 1089.78515625 852.21875 C1088.66624329 847.81870037 1088.66354033 844.23964725 1090.20703125 839.9453125 C1094.93056904 832.46980052 1103.39185202 830.10819977 1111.28491211 827.29418945 C1127.93289466 821.29425711 1143.92815761 813.13041848 1159.21484375 804.23828125 C1163.12009206 801.96971791 1167.09549666 799.84188444 1171.07617188 797.70922852 C1199.3814035 782.5047291 1225.29782737 764.54577479 1249.4909668 743.44042969 C1250.69690499 742.38975882 1251.90709417 741.34395693 1253.12036133 740.30175781 C1257.97732085 736.10670765 1262.60960363 731.73576917 1267.14453125 727.1953125 C1268.19374756 726.1448877 1268.19374756 726.1448877 1269.26416016 725.07324219 C1273.8521924 720.43088219 1278.1176736 715.7028448 1282.14453125 710.5625 C1284.37250518 707.73533611 1286.72388344 705.0395517 1289.08203125 702.3203125 C1316.44785809 669.48132029 1334.59119397 625.2196234 1330.68676758 582.22802734 C1329.71620904 573.11240954 1328.49148371 563.26696047 1322.83203125 555.8203125 C1318.3265868 552.60213789 1314.10785556 549.96306053 1308.34375 550.2265625 C1296.25008729 554.29463186 1287.59027617 576.70161106 1282.01953125 587.2578125 Z M427.58203125 1183.5703125 C421.37583076 1191.61683742 421.33688208 1201.15363388 422.20703125 1210.9453125 C426.48853045 1233.64533657 442.73703737 1257.3127461 461.47265625 1270.2265625 C469.09361629 1275.01688024 477.82319529 1280.23278311 487.15234375 1278.671875 C492.70179017 1276.70952322 496.28285503 1272.50485988 499.20703125 1267.5703125 C504.15290885 1250.85777186 498.06581292 1233.21780431 490.2109375 1218.5390625 C485.50653175 1210.01053003 479.88929108 1203.02942644 473.20703125 1195.9453125 C472.58054687 1195.24277344 471.9540625 1194.54023437 471.30859375 1193.81640625 C464.21196639 1186.16582275 453.9982992 1178.77738966 443.390625 1177.64453125 C436.15153204 1177.61363896 432.79400975 1178.358334 427.58203125 1183.5703125 Z M654.109375 1205.44140625 C641.38312154 1222.63199463 633.42656521 1244.12155743 636.59765625 1265.58984375 C638.30976239 1271.15418871 642.41246592 1274.92811768 647.20703125 1277.9453125 C654.42292785 1280.23034642 660.43794087 1277.91752731 667.20703125 1274.9453125 C690.862698 1262.59470196 705.32839504 1239.18673487 713.31640625 1214.51953125 C715.77888279 1204.63722408 715.16803001 1193.94186378 710.20703125 1184.9453125 C707.66066281 1181.58782931 705.28474332 1179.30454986 701.20703125 1177.9453125 C681.07427268 1175.90188775 666.17313224 1191.08620909 654.109375 1205.44140625 Z M212.20703125 1226.9453125 C214.69679965 1239.39415452 218.55300236 1251.46884949 222.89453125 1263.3828125 C223.19190186 1264.20571777 223.48927246 1265.02862305 223.7956543 1265.87646484 C224.07965088 1266.64039551 224.36364746 1267.40432617 224.65625 1268.19140625 C224.90721436 1268.86872803 225.15817871 1269.5460498 225.41674805 1270.24389648 C226.18452697 1272.15175964 226.18452697 1272.15175964 228.20703125 1273.9453125 C230.06044129 1274.55793906 231.94160136 1275.08768519 233.83203125 1275.57421875 C234.99992188 1275.88190186 236.1678125 1276.18958496 237.37109375 1276.5065918 C238.63695312 1276.83699463 239.9028125 1277.16739746 241.20703125 1277.5078125 C278.45134862 1287.5010497 316.01742142 1301.81776892 347.20703125 1324.9453125 C347.81385742 1325.39519531 348.42068359 1325.84507813 349.04589844 1326.30859375 C368.54543992 1340.91483421 385.14269479 1358.06463851 399.20703125 1377.9453125 C399.64644043 1378.56519043 400.08584961 1379.18506836 400.53857422 1379.82373047 C407.52752483 1389.77656774 413.44598674 1400.24447877 419.20703125 1410.9453125 C419.53703125 1410.9453125 419.86703125 1410.9453125 420.20703125 1410.9453125 C420.52457234 1394.66230574 420.52457234 1394.66230574 418.65625 1378.52734375 C418.08487718 1375.24319217 417.98061263 1372.26611891 418.20703125 1368.9453125 C420.17526011 1366.97708364 423.55511834 1367.28282869 426.20703125 1366.9453125 C421.80475681 1353.59367753 412.69853611 1343.92969966 403.20703125 1333.9453125 C402.58570313 1333.24792969 401.964375 1332.55054688 401.32421875 1331.83203125 C369.59076487 1297.46598142 301.34273792 1265.53363668 254.33203125 1263.5703125 C246.75627241 1263.14417607 240.75751423 1260.31862567 235.25 1255.0859375 C233.48635964 1253.09537275 231.85140427 1251.03503654 230.20703125 1248.9453125 C228.81884888 1247.396753 227.42283816 1245.85517944 226.01953125 1244.3203125 C223.08270793 1241.022034 220.56660113 1237.68807852 218.20703125 1233.9453125 C216.58600923 1231.57167311 214.91767738 1229.25699645 213.20703125 1226.9453125 C212.87703125 1226.9453125 212.54703125 1226.9453125 212.20703125 1226.9453125 Z M923.20703125 1226.9453125 C922.48 1227.96238281 922.48 1227.96238281 921.73828125 1229 C915.10419434 1238.21117452 908.43313435 1247.0940698 900.20703125 1254.9453125 C899.71976563 1255.450625 899.2325 1255.9559375 898.73046875 1256.4765625 C893.25447347 1261.75598359 887.46648634 1263.27243292 880.01953125 1263.8828125 C833.85375635 1267.8522512 784.92666131 1293.97614755 748.20703125 1320.9453125 C747.24152344 1321.64785156 746.27601562 1322.35039063 745.28125 1323.07421875 C730.4152167 1334.43120432 717.67673822 1348.69175404 710.20703125 1365.9453125 C710.20703125 1366.2753125 710.20703125 1366.6053125 710.20703125 1366.9453125 C711.34140625 1367.0896875 712.47578125 1367.2340625 713.64453125 1367.3828125 C717.20703125 1367.9453125 717.20703125 1367.9453125 718.20703125 1368.9453125 C718.50545765 1373.32223311 718.00315869 1377.19969023 717.20703125 1381.5078125 C715.5849529 1391.24028258 716.03488634 1401.11054124 716.20703125 1410.9453125 C718.55357567 1408.79213683 720.00075451 1406.7384936 721.44921875 1403.91015625 C721.86896973 1403.10956787 722.2887207 1402.30897949 722.72119141 1401.48413086 C723.17026855 1400.6256958 723.6193457 1399.76726074 724.08203125 1398.8828125 C758.76500128 1334.24103334 821.16098998 1299.53571651 889.20703125 1278.9453125 C893.73521477 1277.69865692 898.27557616 1276.50611918 902.86694336 1275.51416016 C906.71566838 1274.65176046 906.71566838 1274.65176046 909.76416016 1272.28930664 C911.54168305 1269.40165904 912.5257269 1266.56716197 913.58203125 1263.34375 C913.79263184 1262.70724518 914.00323242 1262.07074036 914.22021484 1261.41494751 C914.88956642 1259.38564992 915.54827985 1257.3530725 916.20703125 1255.3203125 C916.64907726 1253.97764635 917.09177979 1252.63519615 917.53515625 1251.29296875 C918.77896081 1247.5166528 919.99437655 1243.73174375 921.20703125 1239.9453125 C921.5421875 1238.92727539 921.87734375 1237.90923828 922.22265625 1236.86035156 C922.50625 1235.9731543 922.78984375 1235.08595703 923.08203125 1234.171875 C923.32695313 1233.41729004 923.571875 1232.66270508 923.82421875 1231.88525391 C924.41328225 1229.7408842 924.41328225 1229.7408842 923.20703125 1226.9453125 Z M186.20703125 1334.9453125 C182.82584254 1339.40471309 181.49010517 1344.13945039 181.75 1349.703125 C182.74540158 1354.58654814 185.61829882 1358.24309919 188.95703125 1361.8203125 C193.25834704 1363.97097039 197.63713473 1365.63182264 202.4296875 1364.3515625 C206.7339735 1362.35630469 209.61299269 1359.99201265 212.20703125 1355.9453125 C213.73393538 1351.36460012 213.73805378 1347.53838009 212.20703125 1342.9453125 C208.99554534 1338.12808364 204.76989013 1333.79959879 199.20703125 1331.9453125 C193.99221729 1331.55174163 190.51872309 1331.87922053 186.20703125 1334.9453125 Z M925.625 1341.0078125 C922.83046315 1344.82624301 922.89575789 1348.35403039 923.20703125 1352.9453125 C924.94865938 1357.62020906 926.99830022 1360.26702912 931.20703125 1362.9453125 C936.45837444 1365.26802199 939.91306369 1365.06416719 945.125 1363.06640625 C949.63126801 1360.63995424 952.20832683 1356.57986293 954.20703125 1351.9453125 C955.11328408 1346.33919033 954.26592878 1341.53633551 951.46875 1336.609375 C949.4114922 1333.89608762 947.42188831 1332.95389511 944.20703125 1331.9453125 C935.41221122 1331.00301035 931.06682185 1334.66502677 925.625 1341.0078125 Z M253.20703125 1395.9453125 C250.671057 1399.85493947 250.51500596 1404.39524622 251.20703125 1408.9453125 C252.64392921 1412.97842383 254.73426213 1415.51652191 257.89453125 1418.3828125 C262.17872692 1420.40365951 265.55045 1420.76607682 270.20703125 1419.9453125 C274.99436359 1417.55164633 278.18628832 1414.34696649 281.20703125 1409.9453125 C282.57032672 1405.61484453 282.44493723 1402.83520251 280.64453125 1398.7578125 C278.42097358 1394.88912263 276.38477252 1392.76832687 272.20703125 1390.9453125 C264.76917653 1389.7493328 258.82199709 1390.74680193 253.20703125 1395.9453125 Z M858.20703125 1394.9453125 C855.53350991 1398.70291414 854.26725285 1401.82117603 854.01953125 1406.4453125 C855.83110801 1411.78469665 859.32712785 1416.16908465 864.1640625 1419.15234375 C867.82215774 1420.57221628 871.35441436 1420.47462856 875.20703125 1419.9453125 C880.31232301 1417.53715601 883.31714819 1414.20922408 885.20703125 1408.9453125 C886.11154596 1403.69099671 885.28871322 1399.31931271 882.20703125 1394.9453125 C877.22219329 1390.99898245 873.11202833 1390.29331263 866.79296875 1390.5703125 C862.95459203 1391.12693511 860.98080525 1392.23919153 858.20703125 1394.9453125 Z M327.20703125 1436.9453125 C323.86868344 1440.16854487 323.36181985 1443.37904893 323.20703125 1447.9453125 C324.91568534 1453.77483822 327.22476504 1456.72149319 332.20703125 1459.9453125 C336.06499413 1460.65391793 337.57149098 1460.34437267 340.89453125 1458.2578125 C344.59937798 1454.55296577 346.0566458 1452.29878159 346.64453125 1447.0078125 C346.48384223 1442.75758789 344.93697598 1440.22124617 342.20703125 1436.9453125 C336.65024356 1433.24078737 332.80585415 1433.33718219 327.20703125 1436.9453125 Z M795.20703125 1435.9453125 C791.34119165 1440.01461734 789.75005986 1443.02002815 789.78125 1448.70703125 C790.57360137 1452.87232792 793.32155613 1455.94770752 796.20703125 1458.9453125 C799.16496848 1460.42428111 800.90923349 1460.3808707 804.20703125 1459.9453125 C808.41299014 1457.57563504 811.35804269 1454.67938431 812.76953125 1450.0078125 C813.47794521 1445.89114029 812.91017847 1442.79590621 811.20703125 1438.9453125 C805.86030272 1433.59858397 802.20863296 1433.19468326 795.20703125 1435.9453125 Z M512.20703125 1530.9453125 C510.50343525 1532.47145059 508.79534923 1533.99259691 507.08203125 1535.5078125 C505.96441406 1536.49974609 505.96441406 1536.49974609 504.82421875 1537.51171875 C504.29054688 1537.98480469 503.756875 1538.45789062 503.20703125 1538.9453125 C503.53703125 1539.6053125 503.86703125 1540.2653125 504.20703125 1540.9453125 C504.99799194 1540.45502563 504.99799194 1540.45502563 505.80493164 1539.95483398 C516.68012788 1533.24325059 527.4512797 1526.98349173 539.20703125 1521.9453125 C540.10550781 1521.53667969 541.00398437 1521.12804688 541.9296875 1520.70703125 C557.56585456 1513.89253689 576.68326632 1513.86456103 592.59326172 1519.84179688 C603.62345669 1524.33692776 613.99221568 1529.85087001 624.20703125 1535.9453125 C625.9945199 1536.95276164 627.78564374 1537.953818 629.58203125 1538.9453125 C630.29101562 1539.3371875 631 1539.7290625 631.73046875 1540.1328125 C632.21773437 1540.4009375 632.705 1540.6690625 633.20703125 1540.9453125 C631.63026418 1536.89891025 628.7504974 1534.39353449 625.58203125 1531.5703125 C624.7636377 1530.83578857 624.7636377 1530.83578857 623.92871094 1530.08642578 C608.04247861 1515.95228235 587.8412322 1504.08156743 565.9140625 1504.703125 C544.93258527 1506.58025572 527.30280295 1516.76883459 512.20703125 1530.9453125 Z M509.20703125 1642.9453125 C511.78984098 1645.61882351 514.41620808 1647.94528014 517.3984375 1650.16015625 C522.32762191 1653.95005279 526.7535709 1658.11257338 531.14453125 1662.5078125 C531.93375977 1663.29067627 532.72298828 1664.07354004 533.53613281 1664.88012695 C538.10671758 1669.51050408 541.96493347 1674.15498265 545.45703125 1679.6328125 C549.6226188 1686.14894879 554.31911255 1688.7371373 561.30078125 1691.61328125 C564.20703125 1692.9453125 564.20703125 1692.9453125 566.20703125 1695.9453125 C566.52587891 1698.0300293 566.52587891 1698.0300293 566.62109375 1700.39453125 C566.67910156 1701.66586914 566.67910156 1701.66586914 566.73828125 1702.96289062 C566.76921875 1703.84396484 566.80015625 1704.72503906 566.83203125 1705.6328125 C566.89003906 1706.97182617 566.89003906 1706.97182617 566.94921875 1708.33789062 C567.04343343 1710.5401587 567.12904713 1712.74241972 567.20703125 1714.9453125 C567.86703125 1714.9453125 568.52703125 1714.9453125 569.20703125 1714.9453125 C569.22121094 1713.63175781 569.23539063 1712.31820313 569.25 1710.96484375 C569.29691113 1709.22913199 569.34515846 1707.49345598 569.39453125 1705.7578125 C569.40033203 1704.89349609 569.40613281 1704.02917969 569.41210938 1703.13867188 C569.56304266 1698.76160651 569.75043387 1696.55866426 572.42578125 1692.96484375 C575.13203568 1690.99976856 577.37498421 1689.90338369 580.51953125 1688.8203125 C586.34177896 1686.33397111 588.83405598 1683.02289608 592.26953125 1677.828125 C595.4478875 1673.09903848 599.283828 1669.06203699 603.20703125 1664.9453125 C603.73635254 1664.38875977 604.26567383 1663.83220703 604.81103516 1663.25878906 C611.75938624 1655.99826284 618.57905053 1649.23342972 627.20703125 1643.9453125 C623.70656469 1642.43618279 621.22801259 1643.39047681 617.77636719 1644.68505859 C617.09348633 1644.95656738 616.41060547 1645.22807617 615.70703125 1645.5078125 C614.99579102 1645.78447754 614.28455078 1646.06114258 613.55175781 1646.34619141 C597.32156045 1652.77626735 583.57135164 1661.58099211 571.20703125 1673.9453125 C568.3203125 1674.30859375 568.3203125 1674.30859375 565.20703125 1673.9453125 C563.25 1672.36328125 563.25 1672.36328125 561.39453125 1670.1328125 C549.37347581 1657.2820209 530.12510149 1647.16173558 513.20703125 1642.9453125 C511.88703125 1642.9453125 510.56703125 1642.9453125 509.20703125 1642.9453125 Z M567.20703125 1719.9453125 C567.20703125 1722.2553125 567.20703125 1724.5653125 567.20703125 1726.9453125 C567.86703125 1726.9453125 568.52703125 1726.9453125 569.20703125 1726.9453125 C569.20703125 1724.6353125 569.20703125 1722.3253125 569.20703125 1719.9453125 C568.54703125 1719.9453125 567.88703125 1719.9453125 567.20703125 1719.9453125 Z " fill="#FFFFFF" transform="translate(455.79296875,132.0546875)"/>
<path d="M0 0 C4.38623569 4.4395098 5.82879728 9.23707884 7.5625 15.125 C25.43744804 72.92745819 53.50256308 126.89205921 90.5 174.8125 C91.02408447 175.49368896 91.54816895 176.17487793 92.08813477 176.87670898 C95.50473375 181.16537111 99.28541816 184.70032417 103.5625 188.125 C117.13693799 171.93904689 127.63759973 153.71321991 137.5625 135.125 C138.09488281 134.13258301 138.62726563 133.14016602 139.17578125 132.11767578 C156.16105531 100.32779913 169.36701438 67.24523011 181.1875 33.25 C181.7899353 31.52378418 181.7899353 31.52378418 182.40454102 29.76269531 C184.55371014 23.47844524 186.37154624 17.22327632 187.82202148 10.74023438 C189.12243784 6.14740218 191.29298351 1.69620372 195.2890625 -1.0703125 C210.12200887 -6.3204619 235.71776994 -0.88950032 250.5625 3.125 C254.85404519 5.41654519 254.85404519 5.41654519 256.5625 7.125 C257.61528977 18.36291874 254.94248926 29.81145067 252.625 40.75 C252.38861816 41.90532227 252.38861816 41.90532227 252.14746094 43.08398438 C250.49370362 50.56731909 250.49370362 50.56731909 247.5625 53.125 C244.3125 54.1015625 244.3125 54.1015625 240.5625 54.75 C235.25666921 55.64894797 235.25666921 55.64894797 230.5625 58.125 C229.63337464 61.20688906 229.63337464 61.20688906 229.0546875 64.921875 C228.79318513 66.35450983 228.53111543 67.78704119 228.26855469 69.21948242 C228.13396851 69.97748138 227.99938232 70.73548035 227.86071777 71.51644897 C224.69294005 89.17016267 220.16059146 106.07385116 214.5625 123.125 C214.14026025 124.4276162 213.71839031 125.73035232 213.296875 127.03320312 C197.00126635 177.21131659 174.85959632 231.06883386 138.5625 270.125 C137.634375 271.15560547 137.634375 271.15560547 136.6875 272.20703125 C129.70600484 279.62486986 120.95086937 286.40856073 110.5625 287.125 C105.69895739 285.90405518 101.99033332 283.62723832 98 280.6875 C97.09145264 280.02705688 97.09145264 280.02705688 96.16455078 279.35327148 C89.69675737 274.58854604 83.57521808 269.44770322 77.5625 264.125 C77.06008789 263.68043457 76.55767578 263.23586914 76.04003906 262.77783203 C64.32998077 252.35153745 53.22497602 241.49920316 43.5625 229.125 C42.50633217 227.81940257 41.44894903 226.51478771 40.390625 225.2109375 C21.98108795 202.31076239 7.84558744 176.48933725 -6.05029297 150.6953125 C-7.31891432 148.34472369 -8.59759852 145.99993793 -9.87890625 143.65625 C-24.78511955 116.22651789 -34.30923195 86.88075455 -43.4375 57.125 C-44.41098389 57.14071045 -45.38446777 57.1564209 -46.38745117 57.17260742 C-50.01220367 57.22706239 -53.63692026 57.26140626 -57.26196289 57.28979492 C-58.82843107 57.30484622 -60.39485736 57.32529207 -61.96118164 57.35131836 C-64.21771606 57.38786433 -66.47369153 57.40476261 -68.73046875 57.41796875 C-69.42649704 57.43345261 -70.12252533 57.44893646 -70.83964539 57.46488953 C-75.22431859 57.46639418 -77.96781728 56.83924197 -81.4375 54.125 C-86.64265004 45.2569666 -86.62353587 34.21581578 -86.75 24.1875 C-86.76764404 23.38280273 -86.78528809 22.57810547 -86.8034668 21.74902344 C-86.79685564 15.99130614 -85.90010335 11.77380019 -81.8359375 7.40234375 C-78.09334193 5.40913731 -74.18645597 4.59375023 -70.0625 3.6875 C-69.11584473 3.47577148 -68.16918945 3.26404297 -67.19384766 3.04589844 C-11.44958911 -8.84644778 -11.44958911 -8.84644778 0 0 Z " fill="#FFFFFF" transform="translate(619.4375,156.875)"/>
<path d="M0 0 C2.39205763 3.58808644 2.83988181 6.89763988 3.5 11.0625 C3.75399985 12.60306432 4.00920303 14.14343073 4.265625 15.68359375 C4.4502832 16.79903564 4.4502832 16.79903564 4.63867188 17.93701172 C5.09108791 20.52006271 5.66532343 23.06901527 6.25 25.625 C7.04883179 29.76631217 7.38893129 32.91036898 6 37 C4.05001103 38.97509612 2.0343737 40.66178111 -0.1875 42.32421875 C-2.36694863 44.33926931 -2.59499696 45.0865418 -3 48 C-2.74849883 50.3320854 -2.39927951 52.65414767 -1.99609375 54.96484375 C-1.87808914 55.65630493 -1.76008453 56.34776611 -1.63850403 57.06018066 C-1.24556756 59.35396337 -0.84147643 61.64563807 -0.4375 63.9375 C-0.01147266 66.40454104 0.41175705 68.87205146 0.83474731 71.33961487 C1.12670253 73.0421132 1.41958266 74.74445315 1.71334839 76.44664001 C2.64750334 81.87478099 3.5381928 87.30784827 4.38671875 92.75 C10.95370405 134.78347757 19.1614509 176.34162989 29.41290283 217.63104248 C30.8667278 223.49727685 32.2888002 229.37036053 33.6875 235.25 C33.93145508 236.23057373 34.17541016 237.21114746 34.42675781 238.22143555 C37.79454774 252.43041047 37.79454774 252.43041047 34.5625 258.859375 C31.0144118 261.82332672 27.24737156 263.48591596 23 265.25 C22.19304687 265.600625 21.38609375 265.95125 20.5546875 266.3125 C11.92702497 270.01413739 2.80624788 271.9416273 -6.51953125 269.28125 C-10.79327082 267.25469663 -13.81908504 264.50716265 -17 261 C-18.0817007 259.95663806 -19.165189 258.91512771 -20.25 257.875 C-37.85393116 240.15798149 -51.59637242 217.81342234 -65.828125 197.36547852 C-70.13875276 191.18461472 -74.55013893 185.08128472 -79 179 C-72.40672312 199.89073702 -65.14643179 220.31503198 -56.52148438 240.46118164 C-43.50282829 271.06252275 -43.50282829 271.06252275 -45 281 C-48.44484497 288.277235 -56.63818364 291.38941822 -63.77368164 294.02416992 C-66.62797256 294.96304554 -69.49204094 295.84084424 -72.375 296.6875 C-73.8911792 297.13802734 -73.8911792 297.13802734 -75.43798828 297.59765625 C-97.05707166 303.89495007 -97.05707166 303.89495007 -105 301 C-110.68599292 297.21926125 -112.85236923 293.05036713 -115.375 286.8125 C-115.72949219 286.01263672 -116.08398438 285.21277344 -116.44921875 284.38867188 C-118.79078305 278.76078085 -120.22766697 273.09529478 -119 267 C-115.7891137 262.90297561 -111.42306453 260.62022648 -107 258 C-107.2630896 257.21858643 -107.2630896 257.21858643 -107.53149414 256.42138672 C-112.15915196 242.65684052 -116.64889082 228.8543779 -121 215 C-121.33225586 213.94409668 -121.66451172 212.88819336 -122.00683594 211.80029297 C-124.70532681 203.21064193 -127.36731933 194.61002484 -130 186 C-130.22167847 185.27522461 -130.44335693 184.55044922 -130.67175293 183.80371094 C-139.94546899 153.44323341 -147.91951522 123.31929942 -152.99259949 91.95762634 C-153.79955354 87.03720554 -154.77757923 82.17496494 -155.83886719 77.30444336 C-157.66001495 68.83975518 -158.37651346 60.66463017 -158.4375 52 C-158.44765137 50.97753174 -158.45780273 49.95506348 -158.46826172 48.90161133 C-158.36085464 39.91194166 -158.36085464 39.91194166 -155 36 C-147.21323172 29.38859297 -134.20222458 23.34411345 -123.875 24.125 C-116.54464558 25.78024132 -112.33959157 30.17740354 -108 36 C-105.61775097 39.86834285 -103.4906907 43.85590425 -101.375 47.875 C-100.76672363 49.01686768 -100.15844727 50.15873535 -99.53173828 51.33520508 C-94.91638935 60.04634343 -90.61602763 68.89831918 -86.39770508 77.80761719 C-77.44831284 96.67125571 -67.39782899 114.90303963 -57 133 C-56.47921875 133.90959473 -55.9584375 134.81918945 -55.421875 135.75634766 C-53.93039414 138.36031882 -52.43508461 140.96203511 -50.9375 143.5625 C-50.27609009 144.71347168 -50.27609009 144.71347168 -49.60131836 145.88769531 C-47.20310458 150.02968481 -44.70240981 154.04936394 -42 158 C-42.09481798 155.20777402 -42.19973855 152.41653962 -42.3125 149.625 C-42.35173584 148.64192871 -42.39097168 147.65885742 -42.43139648 146.64599609 C-42.71102845 140.41220396 -43.1418525 134.2113434 -43.734375 128 C-45.98311585 103.56416616 -46.30776842 79.20124943 -46.31141281 54.67980194 C-46.31249706 51.94491084 -46.3172271 49.21004453 -46.32254028 46.47515869 C-46.3294008 42.10855054 -46.32377962 37.74212401 -46.30814362 33.37553978 C-46.30329406 31.74645791 -46.30141386 30.11736408 -46.30272675 28.48827553 C-46.30663271 7.43131556 -46.30663271 7.43131556 -41.6875 2.5625 C-31.74030174 -3.2207548 -9.6897145 -7.25878612 0 0 Z " fill="#FFFFFF" transform="translate(982,452)"/>
<path d="M0 0 C0.76441406 -0.020625 1.52882813 -0.04125 2.31640625 -0.0625 C14.72402958 -0.1467623 22.37170896 6.57603222 31.0625 14.75 C43.22386016 27.19550409 53.61503886 44.56203196 54.625 62.25 C54.19584295 75.4232556 48.79421527 88.72131522 44.53686523 101.04443359 C42.80330343 106.07456443 41.33820284 111.06848835 40.125 116.25 C41.41792969 116.21519531 42.71085938 116.18039062 44.04296875 116.14453125 C70.27144534 115.64421927 70.27144534 115.64421927 79.23828125 123.3515625 C96.30272113 140.52199269 105.92674306 164.48494495 113.125 187.25 C113.36911621 188.0145752 113.61323242 188.77915039 113.86474609 189.56689453 C118.75816435 205.25357413 121.15909565 220.70543273 113.7890625 236.02734375 C109.07486423 244.77735566 102.79345089 251.96656747 96.125 259.25 C95.63821777 259.7980127 95.15143555 260.34602539 94.64990234 260.91064453 C77.87383309 279.69690586 53.73062791 292.64664833 30.8125 302.5 C30.1618457 302.7880249 29.51119141 303.0760498 28.84082031 303.37280273 C23.92392876 305.3686241 19.35190306 306.00690293 14.125 305.25 C6.24321259 301.664638 0.29527504 295.27795453 -2.875 287.25 C-3.642141 284.06862115 -3.49112035 282.61065643 -2.875 279.25 C0.11179124 274.68196634 3.54453589 272.01958295 8.125 269.25 C7.55661872 264.18442651 5.17314174 260.3414882 2.6875 256 C2.24083984 255.20787109 1.79417969 254.41574219 1.33398438 253.59960938 C-1.67748476 248.28202222 -4.76403575 243.00981914 -7.875 237.75 C-22.27536146 213.39376377 -34.64186803 188.16081357 -46.41455078 162.43994141 C-47.70679136 159.61740457 -49.00678453 156.79859914 -50.30859375 153.98046875 C-52.55339762 149.09434294 -54.72789483 144.17974616 -56.875 139.25 C-57.29458984 138.29496582 -57.71417969 137.33993164 -58.14648438 136.35595703 C-64.9995509 120.62641858 -70.43474731 104.7382803 -75.25927734 88.29492188 C-75.47941498 87.54724548 -75.69955261 86.79956909 -75.92636108 86.02923584 C-76.33512469 84.63494896 -76.7396432 83.23940665 -77.13882446 81.84234619 C-78.41495409 77.46682621 -80.01516669 73.39978658 -81.875 69.25 C-87.73944772 69.9016053 -92.93978386 71.53098266 -98.4453125 73.609375 C-102.30072699 74.98405148 -104.96343977 75.64547554 -108.875 74.25 C-116.22313173 67.12453893 -118.4795269 56.28096478 -119.125 46.4375 C-118.72944059 41.39411753 -117.70660873 39.18302443 -114.3125 35.375 C-110.73169473 32.5033551 -106.80343819 30.76464157 -102.58203125 29.05078125 C-101.8464801 28.75070663 -101.11092896 28.45063202 -100.35308838 28.14146423 C-90.11274372 24.04982203 -79.61376048 20.70069291 -69.125 17.3125 C-68.05204681 16.96371796 -66.97909363 16.61493591 -65.87362671 16.25558472 C-16.15741184 0.10789591 -16.15741184 0.10789591 0 0 Z M-36.875 60.25 C-36.2466728 64.54929349 -35.25962463 68.54687346 -33.94921875 72.6875 C-33.56443359 73.91339844 -33.17964844 75.13929688 -32.78320312 76.40234375 C-32.37657268 77.68498165 -31.9696709 78.96753356 -31.5625 80.25 C-28.52101806 89.88052437 -25.59920453 99.52564803 -22.875 109.25 C-22.25713623 108.47076172 -21.63927246 107.69152344 -21.00268555 106.88867188 C-18.99221865 104.39536996 -16.88035074 102.08264997 -14.6875 99.75 C-6.8727287 91.12145912 2.21426842 80.51547818 3.265625 68.56640625 C2.96954752 63.68935224 0.52110524 59.64610524 -2.875 56.25 C-13.67082751 54.90052156 -26.60167886 56.82555962 -36.875 60.25 Z M16.125 180.25 C16.74707584 183.96238806 17.80691583 187.11768444 19.3125 190.5625 C21.01839567 194.55584669 22.62965975 198.55808299 24.11279297 202.63964844 C26.90001418 210.29915795 29.97812302 217.82038972 33.1875 225.3125 C33.80467896 226.77586792 33.80467896 226.77586792 34.43432617 228.26879883 C36.82741826 233.7913557 39.42641967 238.4965661 43.125 243.25 C46.66684054 241.751529 48.85276562 239.70084115 51.5 236.9375 C53.99637463 234.37586067 56.4357556 231.89653055 59.25 229.6875 C62.97321988 226.53085705 66.03077312 223.01344339 69.125 219.25 C69.63804687 218.64800781 70.15109375 218.04601562 70.6796875 217.42578125 C71.13601563 216.85214844 71.59234375 216.27851562 72.0625 215.6875 C72.46339844 215.19121094 72.86429688 214.69492187 73.27734375 214.18359375 C74.94910796 210.37012238 74.74673273 206.86636471 73.26000977 203.0012207 C72.06205126 200.51476181 70.77460101 198.10186821 69.4375 195.6875 C69.00244141 194.86314453 68.56738281 194.03878906 68.11914062 193.18945312 C64.45847534 186.40502013 61.08427137 180.19821243 53.40625 177.77734375 C41.07892419 174.92770508 27.96290593 175.91307133 16.125 180.25 Z " fill="#FFFFFF" transform="translate(733.875,486.75)"/>
<path d="M0 0 C0.96679688 -0.020625 1.93359375 -0.04125 2.9296875 -0.0625 C11.82301513 -0.11149905 11.82301513 -0.11149905 15.75 3.25 C17.60637219 6.03455828 18.17406697 7.44312534 18.87109375 10.59765625 C19.07847168 11.49548828 19.28584961 12.39332031 19.49951172 13.31835938 C19.72654785 14.30642578 19.95358398 15.29449219 20.1875 16.3125 C23.76776721 31.24219121 28.59236326 45.73100366 33.43652344 60.28613281 C34.59618376 63.77516319 35.72847712 67.27244114 36.8515625 70.7734375 C48.64260441 107.32926958 63.2663906 144.53688219 85.96240234 175.78710938 C87.90789659 178.46754449 89.81045729 181.17538944 91.70703125 183.890625 C92.58258667 185.14407715 92.58258667 185.14407715 93.47583008 186.42285156 C93.89630615 187.02581055 94.31678223 187.62876953 94.75 188.25 C101.25793075 185.86618241 104.63662164 181.75640906 108.3125 176 C111.63927445 170.89393375 115.09089141 165.90206777 118.625 160.9375 C120.67068404 158.04448742 122.71110733 155.14780161 124.75 152.25 C125.18602539 151.63286133 125.62205078 151.01572266 126.07128906 150.37988281 C132.76420448 140.8507202 138.38115296 130.87088917 143.8671875 120.60546875 C145.93044155 116.74520895 148.06091364 112.93678193 150.26296997 109.15441895 C153.86884977 102.92397732 157.00566515 96.61472685 159.890625 90.01953125 C163.00632491 82.99536537 166.26614499 76.06982406 169.72265625 69.20703125 C182.88940439 43.02740882 182.88940439 43.02740882 191.99243164 15.23486328 C192.88693079 12.89123516 193.77129777 11.78483511 195.75 10.25 C208.50913417 5.72021993 225.75938192 7.06637526 239.1875 6.9375 C240.09741699 6.92001709 241.00733398 6.90253418 241.94482422 6.88452148 C245.52827861 6.88760771 248.05106514 6.8999941 251.28515625 8.51953125 C255.41916369 13.40317204 254.03045446 21.25528597 253.75 27.25 C252.79343861 34.89162107 252.79343861 34.89162107 250.46875 37.91796875 C248.35680037 39.55472971 246.67708776 39.94489651 244.0625 40.4375 C242.85013672 40.67533203 242.85013672 40.67533203 241.61328125 40.91796875 C240.99839844 41.02753906 240.38351562 41.13710937 239.75 41.25 C239.62625 42.02859375 239.5025 42.8071875 239.375 43.609375 C233.3579225 76.25202044 213.2996911 111.47153505 195.44042969 139.07397461 C193.16521662 142.59357761 190.93099725 146.13731411 188.70532227 149.68838501 C182.42302067 159.70083612 175.96367042 169.5852327 169.39550781 179.41210938 C167.74718245 181.87921713 166.10385036 184.34959804 164.4609375 186.8203125 C154.99382298 201.02794202 145.29641009 215.06508224 135 228.6875 C134.36223633 229.533125 133.72447266 230.37875 133.06738281 231.25 C126.18692491 240.34893972 119.131351 249.06744118 111.359375 257.4140625 C109.15196724 259.81313142 107.03388027 262.25475092 104.9375 264.75 C100.75295054 269.51959311 96.55057985 272.99240218 89.9453125 273.45703125 C81.37520239 272.64881802 75.61416278 266.6559519 70.30078125 260.43359375 C69.44543688 259.37648931 68.5952519 258.31519154 67.75 257.25 C67.32638184 256.71648926 66.90276367 256.18297852 66.46630859 255.63330078 C57.70632032 244.42881785 50.22400445 232.33111125 42.75 220.25 C42.08750244 219.18821533 42.08750244 219.18821533 41.41162109 218.10498047 C29.54468233 198.99266146 19.38909806 178.57631827 10.1875 158.0625 C9.73584473 157.06299316 9.28418945 156.06348633 8.81884766 155.03369141 C1.29564347 137.8905613 -4.12603337 119.81315803 -9.8125 102 C-10.14082825 100.97217407 -10.46915649 99.94434814 -10.80743408 98.88537598 C-18.17091213 75.7694767 -18.17091213 75.7694767 -21.125 64 C-21.34486572 63.12956055 -21.56473145 62.25912109 -21.79125977 61.36230469 C-23.20617554 55.36675654 -23.82141287 49.38969223 -24.25 43.25 C-25.06380127 43.22478271 -25.87760254 43.19956543 -26.71606445 43.17358398 C-34.67092286 42.8631405 -34.67092286 42.8631405 -37.375 40 C-40.57383203 29.94652792 -40.58430862 17.25292585 -37.25 7.25 C-35.07488008 4.47207548 -33.76312721 3.38944421 -30.33203125 2.45703125 C-29.25308594 2.32683594 -28.17414062 2.19664062 -27.0625 2.0625 C-25.99644531 1.92457031 -24.93039062 1.78664062 -23.83203125 1.64453125 C-22.64996094 1.51433594 -21.46789062 1.38414062 -20.25 1.25 C-19.57791504 1.16314941 -18.90583008 1.07629883 -18.21337891 0.98681641 C-12.13767739 0.23091608 -6.11917329 0.03316625 0 0 Z " fill="#FFFFFF" transform="translate(1011.25,150.75)"/>
<path d="M0 0 C0.90901566 -0.00619858 1.81803131 -0.01239716 2.7545929 -0.01878357 C4.68037851 -0.02589025 6.60622546 -0.02269295 8.53198242 -0.01000977 C11.46064599 0.00377616 14.38606356 -0.03010397 17.31445312 -0.06835938 C19.18880286 -0.0693114 21.06315655 -0.0674473 22.9375 -0.0625 C23.80549728 -0.07575821 24.67349457 -0.08901642 25.5677948 -0.10267639 C31.75578008 -0.00930271 36.15031818 1.37152833 40.80078125 5.56640625 C44.23580732 9.80192244 45.49640156 14.54037258 46.484375 19.83203125 C46.76728729 21.27337855 47.05118978 22.71453175 47.3359375 24.15551758 C47.4817627 24.91329498 47.62758789 25.67107239 47.77783203 26.45181274 C50.80622018 42.00381427 54.74923208 57.2071863 59.30078125 72.37890625 C59.69521927 73.72172668 59.69521927 73.72172668 60.09762573 75.0916748 C67.73968918 101.27971103 67.73968918 101.27971103 84.80078125 121.56640625 C91.46055909 116.56352966 97.66938118 111.1992474 103.80078125 105.56640625 C104.86925999 104.60227504 105.9382952 103.63876025 107.0078125 102.67578125 C113.68686523 96.63161946 119.94133409 90.42473984 125.80078125 83.56640625 C126.62707031 82.60476562 127.45335937 81.643125 128.3046875 80.65234375 C131.16105413 77.31061588 133.98267361 73.94040736 136.80078125 70.56640625 C137.37586426 69.88030273 137.95094727 69.19419922 138.54345703 68.48730469 C147.70983221 57.58926011 147.70983221 57.58926011 156.09375 46.08984375 C158.70423701 42.23086295 161.44319336 38.46425071 164.17626953 34.69140625 C166.59330897 31.33435568 168.80195845 27.93211388 170.92578125 24.37890625 C173.29863991 20.83939208 175.36362906 19.01616806 179.5 17.86328125 C195.20608768 15.83668929 221.1670356 21.15302714 233.80078125 30.56640625 C235.80078125 32.56640625 235.80078125 32.56640625 236.23828125 36.44140625 C236.06747439 44.56130174 232.27698964 52.66007421 226.80078125 58.56640625 C221.69322313 59.98517239 218.68049367 59.29463773 213.80078125 57.56640625 C210.37468759 57.01927117 210.37468759 57.01927117 206.80078125 57.56640625 C204.15675685 59.83167682 204.15675685 59.83167682 202.05078125 63.06640625 C201.63159424 63.64664551 201.21240723 64.22688477 200.78051758 64.82470703 C198.51212686 67.99331941 196.34840024 71.23276435 194.171875 74.46484375 C193.27805322 75.79084309 192.38351359 77.11635882 191.48828125 78.44140625 C191.03614258 79.11139648 190.58400391 79.78138672 190.11816406 80.47167969 C184.93735712 88.02416098 178.93642699 94.78490306 172.80078125 101.56640625 C171.89795551 102.58030018 170.99558602 103.59460064 170.09375 104.609375 C164.76336676 110.53113509 159.23262717 116.23225986 153.61328125 121.87890625 C152.95996826 122.53689209 152.30665527 123.19487793 151.63354492 123.87280273 C147.18578319 128.30599817 142.56530284 132.47759147 137.80078125 136.56640625 C136.68323247 137.53995002 135.56602704 138.51388811 134.44921875 139.48828125 C123.75522754 148.75092038 112.80130717 157.60147749 101.203125 165.71484375 C95.36354081 170.21559644 92.78067369 173.98905401 90.61328125 180.87890625 C90.3292041 181.75192383 90.04512695 182.62494141 89.75244141 183.52441406 C86.10804655 195.16414533 83.30685411 207.06099725 80.44067383 218.91137695 C77.85795294 229.56238535 74.99794719 240.0829516 71.80078125 250.56640625 C73.04472656 250.55222656 74.28867188 250.53804687 75.5703125 250.5234375 C81.13882496 250.45996223 85.2969134 251.32408063 89.67578125 254.94140625 C94.16770667 260.4902553 93.34131181 267.73943126 92.80078125 274.56640625 C90.05161701 287.69971938 90.05161701 287.69971938 84.80078125 291.56640625 C79.68481123 292.58058357 74.77505379 292.64289815 69.59375 292.328125 C68.81662155 292.28209641 68.0394931 292.23606781 67.23881531 292.18864441 C58.93487899 291.61911759 50.78630876 290.3234039 42.60424805 288.82983398 C40.10704899 288.37777805 37.60601482 287.95480259 35.10351562 287.53320312 C22.06410161 285.2484784 7.5840957 282.17605239 -2.19921875 272.56640625 C-5.96553728 265.0337692 -3.44059286 249.16550349 -1.19921875 241.56640625 C2.96355006 238.79122704 6.74732015 238.47204643 11.6640625 238.25 C12.9934082 238.1871582 12.9934082 238.1871582 14.34960938 238.12304688 C15.26162109 238.08373047 16.17363281 238.04441406 17.11328125 238.00390625 C18.04462891 237.96072266 18.97597656 237.91753906 19.93554688 237.87304688 C22.22382772 237.76743391 24.51223225 237.66598378 26.80078125 237.56640625 C29.26415887 230.87630499 30.7820733 224.22498678 32.02734375 217.21484375 C32.22049164 216.15657379 32.41363953 215.09830383 32.61264038 214.00796509 C33.22316012 210.65352527 33.82444439 207.29750296 34.42578125 203.94140625 C34.83666719 201.68088547 35.24812031 199.4204677 35.66015625 197.16015625 C40.20782476 172.10485439 40.28253392 157.00713634 27.80078125 134.00390625 C20.26961286 120.0760724 15.21005391 106.40504349 11.43704224 91.08557129 C10.78843688 88.45381827 10.12464935 85.82615949 9.46069336 83.19824219 C7.44995 75.127336 5.59863871 67.10643584 4.4296875 58.8671875 C4.24083984 57.5788501 4.05199219 56.2905127 3.85742188 54.96313477 C3.53665014 52.59585837 3.26049077 50.22194921 3.03710938 47.84350586 C2.62364484 44.72449287 2.26201081 42.35564956 0.80078125 39.56640625 C-1.98324388 37.89091557 -4.47459379 37.04966036 -7.62670898 36.28466797 C-11.09235843 35.31703575 -12.42609499 33.62907456 -14.19921875 30.56640625 C-16.83391973 25.2970043 -14.95459773 17.9055042 -13.88671875 12.31640625 C-13.76876953 11.62289062 -13.65082031 10.929375 -13.52929688 10.21484375 C-11.7914309 0.9105767 -8.79298268 -0.04966533 0 0 Z " fill="#FFFFFF" transform="translate(1285.19921875,151.43359375)"/>
<path d="M0 0 C5.97106578 -0.31630511 10.13660115 -0.42837386 14.92578125 3.43359375 C18.14049626 6.5180751 18.57533356 8.94742095 19.11328125 13.30859375 C19.12629445 15.66432921 19.08257828 18.02067638 19 20.375 C18.39343379 44.42963446 19.78298601 68.2289434 21.66373062 92.19471359 C21.86078441 94.71417004 22.05408612 97.23389125 22.24667358 99.75369263 C23.47734343 115.74985891 24.82692372 131.70371562 27.13671875 147.5859375 C27.29074158 148.65299423 27.4447644 149.72005096 27.60345459 150.81944275 C29.5835468 163.55578652 33.53132363 178.69287233 44.17578125 186.99609375 C47.00223993 188.61625862 47.00223993 188.61625862 49.73828125 187.68359375 C50.52203125 187.22984375 51.30578125 186.77609375 52.11328125 186.30859375 C53.19609375 185.87546875 53.19609375 185.87546875 54.30078125 185.43359375 C56.59320982 184.01070705 56.93382302 182.72246705 58.11328125 180.30859375 C59.18829676 178.69884114 60.27259752 177.09527192 61.36328125 175.49609375 C82.09580481 142.64104092 86.16571773 92.31593873 89.65625 54.03515625 C89.99035411 51.31092274 90.41448609 48.84717759 91.0390625 46.1953125 C92.75480595 38.83201187 93.59569267 31.30320037 94.61328125 23.81835938 C94.77828125 22.65369141 94.94328125 21.48902344 95.11328125 20.2890625 C95.25765625 19.23614014 95.40203125 18.18321777 95.55078125 17.09838867 C96.35944514 13.08771061 97.08449256 11.10636366 100.35839844 8.56762695 C103.58573066 7.0926755 105.65902524 7.01276011 109.19140625 7.1640625 C110.93357422 7.23270508 110.93357422 7.23270508 112.7109375 7.30273438 C114.51884766 7.39844727 114.51884766 7.39844727 116.36328125 7.49609375 C117.55308594 7.54056641 118.74289062 7.58503906 119.96875 7.63085938 C136.82466831 8.385185 136.82466831 8.385185 141.68359375 12.46875 C143.55569348 16.18737433 143.37884724 18.62022113 142.98828125 22.74609375 C142.88257813 24.02355469 142.776875 25.30101562 142.66796875 26.6171875 C141.4059338 35.0159412 141.4059338 35.0159412 139.11328125 37.30859375 C136.92688672 37.38118321 134.73827736 37.39233158 132.55078125 37.37109375 C130.75447266 37.35755859 130.75447266 37.35755859 128.921875 37.34375 C127.99503906 37.33214844 127.06820313 37.32054687 126.11328125 37.30859375 C126.14808594 38.28570312 126.18289063 39.2628125 126.21875 40.26953125 C127.18621187 81.28213586 120.26587113 124.68444722 110.11328125 164.30859375 C109.86723145 165.28989258 109.62118164 166.27119141 109.36767578 167.28222656 C102.80724302 193.25932077 93.52943013 227.409302 70.11328125 243.30859375 C60.43504475 248.60392517 50.13824917 249.87101961 39.390625 247.11328125 C25.65460396 242.25973007 16.27959088 230.90556395 9.99951172 218.19580078 C4.46441906 206.40895058 1.10101224 193.94209025 -1.88671875 181.30859375 C-2.20987061 179.97127197 -2.20987061 179.97127197 -2.53955078 178.60693359 C-10.01229072 147.22582482 -11.08345437 114.9679122 -11.01708984 82.8347168 C-11.0116663 79.71593492 -11.01711385 76.59729356 -11.0234375 73.47851562 C-11.02653334 63.04149601 -10.88239669 52.70651061 -9.88671875 42.30859375 C-10.97968262 42.23668823 -10.97968262 42.23668823 -12.09472656 42.16333008 C-12.93358398 42.10814209 -13.77244141 42.0529541 -14.63671875 41.99609375 C-15.95929687 41.90908203 -15.95929687 41.90908203 -17.30859375 41.8203125 C-20.39717656 41.20727561 -21.7471484 40.63442134 -23.88671875 38.30859375 C-25.98910515 30.19655566 -26.0728606 21.35197748 -26.19921875 12.99609375 C-26.21694336 12.27341309 -26.23466797 11.55073242 -26.25292969 10.80615234 C-26.24580619 5.82563754 -26.24580619 5.82563754 -24.5546875 3.390625 C-19.34756352 0.01270148 -12.06615784 0.70037126 -6.03662109 0.42138672 C-4.02228785 0.31570628 -2.01077567 0.15964953 0 0 Z " fill="#FFFFFF" transform="translate(1020.88671875,449.69140625)"/>
<path d="M0 0 C8.07254613 3.35335638 16.20274084 7.25045331 22 14 C23.1877412 17.56322361 23.11174225 20.34881389 23.08984375 24.11328125 C23.08415627 25.22247673 23.08415627 25.22247673 23.07835388 26.3540802 C23.00377179 37.29968118 22.77927616 48.24400058 22.5625 59.1875 C22.54043488 60.3278772 22.51836975 61.46825439 22.49563599 62.64318848 C22.14961903 80.43504643 21.70001641 98.21823259 21 116 C24.85122444 112.92231209 28.06465081 109.95694436 31.125 106.0625 C34.63202524 101.67871845 38.20924733 97.37692034 41.875 93.125 C45.75148462 88.62256397 49.60869046 84.10554589 53.4375 79.5625 C62.44365189 68.89430371 71.50681876 58.23907405 81 48 C81.845625 47.07703125 82.69125 46.1540625 83.5625 45.203125 C84.42875 44.29046875 85.295 43.3778125 86.1875 42.4375 C86.96480469 41.61121094 87.74210937 40.78492188 88.54296875 39.93359375 C91.46305586 37.63559197 93.31753146 37.20485255 97 37 C108.60826763 38.56096023 125.24143094 49.42605833 132.765625 58.015625 C134.82024674 61.31862451 134.72851167 64.31529633 134 68 C130.00754456 78.35406026 123.84480948 90.39104933 114 96 C107.09535176 97.10967561 101.42828128 94.56668244 95.07421875 92.09375 C92.07275808 90.8324007 92.07275808 90.8324007 89 91 C87.02936042 93.44291788 87.02936042 93.44291788 85.0625 96.625 C80.40291734 103.66977578 75.074238 109.93785272 69.50537109 116.27246094 C67.5734598 118.48949051 65.68586542 120.74168713 63.79931641 122.99731445 C58.85405153 128.90804965 53.73693013 134.62831531 48.5 140.28125 C46.37428522 142.59296482 44.29954949 144.93355862 42.25 147.3125 C37.89817798 152.31554479 33.28402583 156.93365606 28.25 161.25 C27.58226562 161.84039063 26.91453125 162.43078125 26.2265625 163.0390625 C24.64056419 164.43585399 23.02798924 165.80271159 21.3984375 167.1484375 C14.21452326 173.56336937 10.49238836 180.17915455 6.69970703 188.94775391 C4.50758851 193.99949055 2.06613085 198.62301498 -0.8828125 203.28125 C-5.09912149 209.98055682 -8.43860048 216.91662756 -11.6875 224.125 C-12.22955078 225.30964844 -12.77160156 226.49429688 -13.33007812 227.71484375 C-14.39208757 230.03871002 -15.44938411 232.36473712 -16.50146484 234.69311523 C-17.48156749 236.85595171 -18.47111211 239.01454062 -19.47119141 241.16821289 C-19.92026855 242.13750732 -20.3693457 243.10680176 -20.83203125 244.10546875 C-21.22753174 244.95262451 -21.62303223 245.79978027 -22.03051758 246.67260742 C-23.74810833 250.79594981 -24.16505411 252.55823119 -23 257 C-20.34788029 259.39295492 -17.61343527 261.31986616 -14.6015625 263.23828125 C-12 265 -12 265 -10 268 C-9.06346216 273.85336149 -10.77138471 276.94124024 -14.078125 281.5234375 C-26.4891724 297.51653517 -26.4891724 297.51653517 -31.125 299 C-39.28549279 299 -46.29236107 292.5246372 -52.625 287.8125 C-58.99005647 283.13787049 -65.41913581 278.62050542 -72.05322266 274.33520508 C-82.40682333 267.58484638 -82.40682333 267.58484638 -83.76171875 263.96484375 C-83.39132452 253.84723304 -79.09223306 245.09223306 -72 238 C-68.03931771 236.01965886 -63.86653966 236.72894472 -59.765625 238.01171875 C-58.85296875 238.33785156 -57.9403125 238.66398438 -57 239 C-40.05437418 208.61201853 -40.05437418 208.61201853 -26.86376953 176.48925781 C-25.89833283 173.70701003 -24.88874908 170.9432535 -23.87109375 168.1796875 C-23.50790039 167.19307129 -23.14470703 166.20645508 -22.77050781 165.18994141 C-22.06815248 163.28332218 -21.36568535 161.37674414 -20.66308594 159.47021484 C-20.34500977 158.5983252 -20.02693359 157.72643555 -19.69921875 156.828125 C-19.27902466 155.6819873 -19.27902466 155.6819873 -18.8503418 154.51269531 C-18.42942261 153.26891113 -18.42942261 153.26891113 -18 152 C-17.63753174 150.9776123 -17.27506348 149.95522461 -16.90161133 148.90185547 C-15.51176023 143.91623553 -15.79197241 138.87613539 -15.875 133.7421875 C-15.89210581 131.49764133 -15.9090259 129.25309374 -15.92578125 127.00854492 C-15.93818848 125.84229584 -15.9505957 124.67604675 -15.96337891 123.47445679 C-16.16039872 104.1095439 -15.8496347 85.04551612 -14.19628906 65.75 C-13.75060952 59.50605183 -13.82271523 53.25421272 -14 47 C-15.38058594 46.55527344 -15.38058594 46.55527344 -16.7890625 46.1015625 C-20.51871983 44.82204502 -23.06199525 43.65819477 -26 41 C-28.14941776 30.64371445 -21.43681025 18.44293638 -17 9.25 C-16.6803125 8.57066406 -16.360625 7.89132812 -16.03125 7.19140625 C-12.36681618 -0.09313355 -7.80541696 -2.38667976 0 0 Z " fill="#FFFFFF" transform="translate(1311,480)"/>
<path d="M0 0 C0.76521973 0.04253906 1.53043945 0.08507812 2.31884766 0.12890625 C4.84092044 0.28371379 7.35679995 0.47936627 9.875 0.6875 C10.68332275 0.74059326 11.49164551 0.79368652 12.32446289 0.84838867 C18.07483312 1.39976137 21.06791591 2.69196429 25 7 C26.45095325 11.32973888 25.62116656 14.53822294 24.48046875 18.88671875 C24.30676758 19.56332047 24.13306641 20.23992218 23.95410156 20.93702698 C23.57471763 22.41097555 23.19060254 23.88371258 22.80233765 25.35534668 C21.73144354 29.41737713 20.69665355 33.48866853 19.65625 37.55859375 C19.43647995 38.4143399 19.2167099 39.27008606 18.99028015 40.15176392 C16.60014757 49.48899672 14.39285924 58.86776184 12.1875 68.25 C9.49675303 79.68825944 6.74141772 91.1053728 3.83984375 102.4921875 C3.57219711 103.54623779 3.30455048 104.60028809 3.02879333 105.6862793 C1.73475544 110.78011165 0.43140047 115.8711778 -0.88989258 120.95800781 C-3.42123219 130.81894521 -5.61794011 140.67616493 -7.328125 150.71484375 C-7.57724136 152.15556747 -7.57724136 152.15556747 -7.83139038 153.62539673 C-9.90227462 166.43052409 -10.27595946 179.39566117 -7 192 C14.04948118 176.47221745 23.1423009 140.84056401 31.83532715 116.90545654 C33.43314696 112.51526916 35.08422628 108.14907162 36.7734375 103.79296875 C45.98653539 80.03425887 54.89970346 55.81521827 61.1262207 31.07421875 C62.31620934 26.53980799 63.64615897 23.45365773 67 20 C71.51522401 17.74238799 77.15147294 18.51853479 81.89453125 19.75390625 C88.30873459 21.99141904 94.12819315 24.19228972 98 30 C99.93581393 38.97175303 95.71494113 48.93879119 92 57 C91.03600705 58.35959383 90.0470868 59.70331692 89 61 C88.28566879 63.64934822 88.28566879 63.64934822 88 66 C87.01 66.33 86.02 66.66 85 67 C84.00558871 69.227359 84.00558871 69.227359 83.34375 72.02734375 C83.04919922 73.11241211 82.75464844 74.19748047 82.45117188 75.31542969 C82.13728516 76.51071289 81.82339844 77.70599609 81.5 78.9375 C80.79679113 81.50548003 80.08983887 84.07199281 79.375 86.63671875 C79.09372253 87.64884933 79.09372253 87.64884933 78.8067627 88.681427 C75.5568743 100.26403604 71.70714278 111.66866199 67.93791199 123.09017944 C66.61923501 127.09059621 65.33395218 131.09913731 64.08203125 135.12109375 C59.98677847 148.11343532 55.02113435 160.70797116 49.875 173.3125 C49.53111237 174.15888031 49.18722473 175.00526062 48.83291626 175.87728882 C45.03025603 185.20704906 41.15756895 194.31936403 36 203 C35.49243164 203.86133545 34.98486328 204.7226709 34.46191406 205.61010742 C9.06448993 248.11103555 9.06448993 248.11103555 -6.51953125 252.75 C-14.28066776 253.59618865 -19.99565272 251.7964786 -26.3828125 247.3359375 C-39.10027549 236.8601968 -43.86009773 222.39599282 -45.68359375 206.4609375 C-47.42768597 185.02500068 -45.04449527 164.73675567 -40.37109375 143.85546875 C-40.1119368 142.694814 -39.85277985 141.53415924 -39.58576965 140.33833313 C-36.61330691 127.13479861 -33.43577757 113.9824957 -30.20581055 100.84008789 C-29.52736231 98.07824597 -28.85398959 95.31524671 -28.18530273 92.55102539 C-23.41231253 72.82696068 -18.03570873 53.37672956 -12 34 C-13.11375 33.566875 -14.2275 33.13375 -15.375 32.6875 C-19 31 -19 31 -21 28 C-21.44085137 21.96422604 -20.48839163 16.94655765 -18.75 11.1875 C-18.54503906 10.43791016 -18.34007812 9.68832031 -18.12890625 8.91601562 C-17.18073574 5.70085563 -16.45177818 3.4850671 -14.14453125 1.0078125 C-9.67446247 -1.09287556 -4.82063775 -0.27974685 0 0 Z " fill="#FFFFFF" transform="translate(1187,459)"/>
<path d="M0 0 C0.70133057 -0.02650635 1.40266113 -0.0530127 2.12524414 -0.08032227 C5.4849071 -0.05599235 6.96968455 0.29712427 9.43505859 2.63110352 C11.6682017 6.23795707 11.71031468 8.99933496 11.4921875 13.09375 C11.45751877 14.16405457 11.45751877 14.16405457 11.42214966 15.25598145 C11.36935983 16.75908393 11.30657285 18.26186481 11.234375 19.76416016 C11.12536914 22.05474318 11.04835719 24.34469773 10.9765625 26.63671875 C10.92114851 28.10163473 10.86391739 29.56648334 10.8046875 31.03125 C10.78058807 31.71159302 10.75648865 32.39193604 10.73165894 33.09289551 C10.48628665 37.91470599 10.00493954 41.92455643 6.375 45.3125 C2.63943892 47.50988887 -0.71689451 47.68135665 -5 47.625 C-5.89203125 47.61597656 -6.7840625 47.60695312 -7.703125 47.59765625 C-8.37859375 47.58605469 -9.0540625 47.57445312 -9.75 47.5625 C-9.77578125 48.72136719 -9.8015625 49.88023437 -9.828125 51.07421875 C-10.17087119 62.31018553 -11.11537506 73.39190176 -12.41696167 84.54910278 C-14.0735966 98.79167824 -15.27654971 112.98782518 -15.9375 127.3125 C-15.97739044 128.17405701 -16.01728088 129.03561401 -16.05838013 129.92327881 C-16.45546895 138.71114796 -16.77126548 147.49789216 -16.94921875 156.29296875 C-17.00612993 159.02868474 -17.06431742 161.76436492 -17.125 164.5 C-17.1396228 165.16220551 -17.15424561 165.82441101 -17.16931152 166.50668335 C-17.51279319 180.66751536 -19.22357495 194.57035681 -21.02410889 208.60365295 C-22.28087561 218.55591728 -23.02773177 228.55937858 -23.75 238.5625 C-22.76 238.2325 -21.77 237.9025 -20.75 237.5625 C-18.1520878 237.41372089 -15.59856851 237.33146765 -13 237.3125 C-11.96359375 237.2815625 -11.96359375 237.2815625 -10.90625 237.25 C-5.79875672 237.21159779 -2.26663954 238.13395512 2.25 240.5625 C5.36515441 245.23523161 4.61859467 250.06672964 4.625 255.5625 C4.64949219 256.66851562 4.67398438 257.77453125 4.69921875 258.9140625 C4.70308594 259.97367187 4.70695313 261.03328125 4.7109375 262.125 C4.71915527 263.09566406 4.72737305 264.06632812 4.73583984 265.06640625 C4.25 267.5625 4.25 267.5625 2.66381836 269.31787109 C-0.48772259 270.94288938 -3.3231663 271.3947103 -6.83203125 271.9140625 C-7.52326584 272.01842621 -8.21450043 272.12278992 -8.92668152 272.23031616 C-10.39260273 272.44914663 -11.85938317 272.66228673 -13.3269043 272.87011719 C-15.51896978 273.18132011 -17.70762129 273.5108506 -19.89648438 273.84375 C-33.77372837 275.9099528 -47.59299429 276.74193563 -61.625 276.75 C-62.7696875 276.76224609 -63.914375 276.77449219 -65.09375 276.78710938 C-80.61580554 276.81387154 -80.61580554 276.81387154 -85.96020508 272.97485352 C-88.41569664 269.66524881 -88.34350888 266.69433195 -88.31640625 262.7265625 C-88.32260483 261.96959076 -88.32880341 261.21261902 -88.33518982 260.43270874 C-88.3422808 258.83405846 -88.33912642 257.23533423 -88.32641602 255.63671875 C-88.31258083 253.20172641 -88.34658541 250.77060345 -88.38476562 248.3359375 C-88.38571723 246.7786449 -88.38385575 245.22134753 -88.37890625 243.6640625 C-88.39216446 242.94199615 -88.40542267 242.21992981 -88.41908264 241.47598267 C-88.34912732 237.63937307 -87.77007256 235.10186316 -85.43261719 232.12011719 C-82.08232286 228.92593414 -79.9979114 228.61370667 -75.4375 228.1875 C-74.18324219 228.05601562 -72.92898438 227.92453125 -71.63671875 227.7890625 C-70.20779297 227.67691406 -70.20779297 227.67691406 -68.75 227.5625 C-68.04285444 222.08212189 -67.69977873 216.70329384 -67.7578125 211.17578125 C-67.78013628 203.3949292 -67.5273222 195.64348569 -67.125 187.875 C-67.08598572 187.11172394 -67.04697144 186.34844788 -67.0067749 185.56204224 C-66.09437531 168.39326774 -64.28702344 151.32303918 -62.47543335 134.22991943 C-60.25365019 113.25275128 -58.44922486 92.27146873 -56.95556641 71.23022461 C-56.88015121 70.18431152 -56.80473602 69.13839844 -56.72703552 68.06079102 C-56.58720652 66.11113218 -56.45128866 64.16118746 -56.31996155 62.2109375 C-56.25908859 61.35814209 -56.19821564 60.50534668 -56.13549805 59.62670898 C-56.08475632 58.88533188 -56.03401459 58.14395477 -55.98173523 57.38011169 C-55.75 55.5625 -55.75 55.5625 -54.75 53.5625 C-55.74 54.0575 -55.74 54.0575 -56.75 54.5625 C-62.88259685 54.89103197 -71.244429 55.19644701 -76.36523438 51.34887695 C-79.30011449 47.56281951 -78.10692209 42.10023382 -77.75 37.5625 C-77.07325932 32.83937215 -76.11162317 28.21557928 -75.0625 23.5625 C-74.81822266 22.36238281 -74.57394531 21.16226563 -74.32226562 19.92578125 C-74.06767578 18.77464844 -73.81308594 17.62351563 -73.55078125 16.4375 C-73.21300659 14.88675781 -73.21300659 14.88675781 -72.8684082 13.3046875 C-71.47665262 9.89228875 -69.79110226 8.5778825 -66.75 6.5625 C-63.27297072 5.46971937 -59.81119101 5.43662836 -56.18139648 5.32202148 C-46.97121532 5.02640583 -37.91530521 4.00353481 -28.79129028 2.78063965 C-9.11464208 0.15583067 -9.11464208 0.15583067 0 0 Z " fill="#FFFFFF" transform="translate(954.75,151.4375)"/>
<path d="M0 0 C1 3 1 3 -0.4375 6.1875 C-1.2109375 7.5796875 -1.2109375 7.5796875 -2 9 C-2.66 9 -3.32 9 -4 9 C-3.35455571 5.51460083 -1.89865603 2.97180943 0 0 Z " fill="#FFFFFF" transform="translate(1297,724)"/>
<path d="" fill="#FFFFFF" transform="translate(0,0)"/>
<path d="" fill="#FFFFFF" transform="translate(0,0)"/>
<path d="" fill="#FFFFFF" transform="translate(0,0)"/>
<path d="" fill="#FFFFFF" transform="translate(0,0)"/>
<path d="" fill="#FFFFFF" transform="translate(0,0)"/>
</svg>
